<?xml version="1.0" encoding="UTF-8" standalone="no"?>
<!-- Created with Inkscape (http://www.inkscape.org/) -->

<svg
   xmlns:dc="http://purl.org/dc/elements/1.1/"
   xmlns:cc="http://creativecommons.org/ns#"
   xmlns:rdf="http://www.w3.org/1999/02/22-rdf-syntax-ns#"
   xmlns:svg="http://www.w3.org/2000/svg"
   xmlns="http://www.w3.org/2000/svg"
   xmlns:sodipodi="http://sodipodi.sourceforge.net/DTD/sodipodi-0.dtd"
   xmlns:inkscape="http://www.inkscape.org/namespaces/inkscape"
   width="109.53144mm"
   height="63.465065mm"
   viewBox="0 0 109.53144 63.465065"
   version="1.1"
   id="svg8"
   inkscape:version="0.92.1 r15371"
   sodipodi:docname="vignette-3.svg">
  <defs
     id="defs2" />
  <sodipodi:namedview
     id="base"
     pagecolor="#ffffff"
     bordercolor="#666666"
     borderopacity="1.0"
     inkscape:pageopacity="0.0"
     inkscape:pageshadow="2"
     inkscape:zoom="0.7"
     inkscape:cx="143.31878"
     inkscape:cy="-126.54445"
     inkscape:document-units="mm"
     inkscape:current-layer="layer1"
     showgrid="false"
     fit-margin-top="0"
     fit-margin-left="0"
     fit-margin-right="0"
     fit-margin-bottom="0"
     inkscape:window-width="1920"
     inkscape:window-height="1001"
     inkscape:window-x="-9"
     inkscape:window-y="-9"
     inkscape:window-maximized="1" />
  <metadata
     id="metadata5">
    <rdf:RDF>
      <cc:Work
         rdf:about="">
        <dc:format>image/svg+xml</dc:format>
        <dc:type
           rdf:resource="http://purl.org/dc/dcmitype/StillImage" />
        <dc:title></dc:title>
      </cc:Work>
    </rdf:RDF>
  </metadata>
  <g
     inkscape:label="Layer 1"
     inkscape:groupmode="layer"
     id="layer1"
     transform="translate(-11.592746,-11.889655)">
    <path
       style="fill:#000000;stroke-width:0.99999994"
       mask="none"
       d="m 252.86914,44.9375 c -1.5676,-0.01418 -2.57876,0.648917 -3.67773,2.326172 -1.40123,2.138286 -1.60247,4.199803 -1.16211,11.810547 0.2934,5.070984 1.25147,11.186884 2.13086,13.589843 1.56419,4.274227 1.54237,4.474198 -1.0293,9.199219 -3.39046,6.229361 -7.00703,9.699226 -8.75391,8.398438 -0.7139,-0.531602 -4.4062,-3.328457 -8.20507,-6.214844 -13.43254,-10.206062 -31.29223,-17.893484 -52.14844,-22.445313 -7.72799,-1.686621 -13.19303,-2.133256 -26.25977,-2.146484 -21.87396,-0.02236 -34.7137,2.746152 -51.5,11.105469 -7.343488,3.656946 -18.824809,11.243559 -18.105467,11.962891 0.231069,0.231068 3.299087,-1.397746 6.816406,-3.619141 15.327891,-9.680432 29.815671,-14.122073 48.439451,-14.849609 30.50319,-1.191606 58.22707,8.295492 87.66406,30 l 6.81446,5.02539 -3.76758,3.857422 c -2.07188,2.1218 -4.26788,3.85742 -4.88086,3.85742 -0.61297,0 -6.03397,-2.20139 -12.04687,-4.89258 -13.51871,-6.050536 -29.90316,-11.214897 -46.9336,-14.794918 -11.84373,-2.489722 -14.9123,-2.734421 -34.5,-2.732422 -24.77559,0.0021 -30.60923,1.10267 -46.499998,8.775391 -15.027009,7.255659 -25.489995,17.475509 -32.015625,31.269529 -3.920719,8.28775 -2.554285,7.34348 2.023437,-1.39844 5.476139,-10.45757 12.801048,-17.59751 23.992188,-23.386714 11.26368,-5.826751 23.860998,-10.27634 33.195308,-11.72461 16.95103,-2.630037 41.8977,-0.308246 59.48829,5.535156 11.41734,3.792719 43.34508,19.174978 43.27539,20.849608 -0.0229,0.55 -3.47968,3.31958 -7.68164,6.1543 l -7.64063,5.1543 -13.81836,-4.47071 c -19.36445,-6.26312 -28.33804,-8.23634 -42.23242,-9.29101 -21.05209,-1.59798 -46.870688,1.51351 -63.060548,7.59961 -16.111831,6.05677 -28.776178,16.04319 -34.125,26.9082 -2.743653,5.57322 -3.087345,7.16375 -2.734374,12.70703 1.022781,16.0625 14.339516,29.7198 34.458984,35.33984 3.832921,1.07067 11.43811,1.80488 21.874998,2.11329 14.44342,0.42667 17.25017,0.21813 28.84766,-2.14649 20.73961,-4.22857 42.23666,-11.81438 62.93359,-22.20898 4.94864,-2.48534 9.80125,-4.30937 10.7832,-4.05274 1.97699,0.517 17.8827,10.89932 17.91407,11.69336 0.0108,0.275 -3.91888,2.97498 -8.73047,6 -8.51165,5.35117 -9.03931,5.53347 -19.51758,6.72266 -6.37004,0.72295 -14.47995,2.46532 -19.85352,4.26562 -17.33277,5.80702 -28.12241,16.05236 -20.12695,19.11328 6.33859,2.42665 18.24534,-1.42202 36.60547,-11.83398 l 8.85547,-5.02148 6.64453,1.45312 c 6.50865,1.42307 26.42363,10.46451 30.91797,14.03711 l 2.27344,1.80664 -3.56055,8.2168 c -7.51584,17.34338 -9.25086,31.31307 -5.42578,43.69726 2.10503,6.81532 7.31097,13.93081 11.4082,15.5918 6.43074,2.607 16.45189,-0.31929 20.48438,-5.98242 11.76635,-16.52429 7.71402,-45.11269 -8.84375,-62.38672 l -5.92383,-6.17969 3.375,-4 c 3.16898,-3.75503 3.51585,-3.91244 5.6582,-2.58008 7.44299,4.62894 24.309,13.52964 30.59961,16.14844 12.11437,5.04321 39.50934,12.01244 49.18164,12.51172 l 8.5,0.4375 -8.5,-1.91406 c -15.59917,-3.51406 -26.97111,-8.72603 -44.18164,-20.25 -4.77521,-3.19745 -12.87527,-8.34826 -18,-11.44532 -5.12477,-3.09702 -9.52941,-5.83006 -9.78906,-6.07421 -0.25958,-0.24424 1.97033,-2.59919 4.95703,-5.23243 l 5.43164,-4.7871 8.49219,5.47851 c 29.38737,18.95804 65.83106,31.82853 93.08984,32.875 8.76567,0.33649 13.78502,0.0845 16.80078,-0.84375 4.18882,-1.28912 4.00701,-1.32993 -7,-1.52344 -23.30222,-0.40955 -39.51602,-7.24555 -79.55078,-33.54101 -10.03752,-6.59278 -18.25,-12.27313 -18.25,-12.625 0,-0.83653 11.68052,-8.13477 13.01953,-8.13477 0.56674,0 4.0571,1.51794 7.75586,3.37305 19.04172,9.55011 46.91644,18.25868 65.72461,20.5332 22.41071,2.71019 41.32025,0.16083 57,-7.68555 6.80149,-3.40357 18.4788,-15.3287 21.88672,-22.35156 10.51098,-21.66043 6.04621,-46.75516 -10.98437,-61.746091 -6.3704,-5.60744 -18.64677,-11.69206 -29.39454,-14.56836 -8.39066,-2.245485 -9.75794,-2.965908 -14.87304,-7.832031 -10.19225,-9.696143 -22.19386,-13.682842 -41.25391,-13.707031 -21.05979,-0.02679 -36.39267,4.036648 -58.88086,15.605469 -6.87503,3.536772 -16.54999,9.33863 -21.5,12.894531 -4.94997,3.555908 -9.347,6.469696 -9.77148,6.474609 -1.24029,0.01466 -8.53082,-11.815004 -9.22266,-14.964844 -0.3868,-1.761055 0.16879,-5.467996 1.43164,-9.55664 3.86351,-12.508554 1.89265,-24.584291 -4.125,-25.279297 -0.24857,-0.02871 -0.48309,-0.04485 -0.70703,-0.04687 z m -1.05469,11.857422 c 1.42035,0 3.94922,6.260845 3.94922,9.777344 0,1.562543 -0.64191,3.713631 -1.42578,4.78125 -1.37473,1.872226 -1.46346,1.84212 -2.5,-0.873047 -1.3895,-3.642252 -1.40761,-13.685547 -0.0234,-13.685547 z m 99.23438,10.228516 c 8.92245,0.09678 17.40326,1.354988 24.97265,3.839843 3.54017,1.16216 7.65369,3.083753 9.14063,4.271485 l 2.70312,2.160156 -12.10156,0.21289 c -19.01639,0.333684 -33.22967,3.194216 -53.5,10.771485 -10.09447,3.773439 -30.40846,13.540893 -37.57422,18.064453 v -0.002 c -2.13649,1.34868 -4.00771,2.44291 -4.15625,2.42968 -0.14842,-0.0133 -2.93343,-2.40744 -6.18945,-5.32031 -3.7022,-3.31202 -5.64177,-5.744455 -5.17969,-6.492186 0.9987,-1.615922 13.59204,-10.009209 21.59961,-14.394531 18.88993,-10.345035 40.65576,-15.753926 60.28516,-15.541015 z m 39.5332,13.517578 1.64453,3.179687 c 3.60571,6.97265 2.97458,17.396767 -1.61328,26.638677 l -2.01758,4.06445 -14.16601,0.14844 c -7.79101,0.0817 -18.66601,0.79323 -24.16602,1.58203 l -10,1.43554 -2.75,-2.91406 c -2.04113,-2.16204 -2.75,-3.92735 -2.75,-6.84961 0,-8.240457 3.78321,-11.928473 13.10156,-12.773436 6.99478,-0.63428 6.85202,-2.257812 -0.19921,-2.257812 -13.13095,0 -20.17338,10.196328 -14.96485,21.667968 1.93372,4.25894 1.79916,5.33203 -0.66797,5.33203 -0.76875,0 -6.17363,1.79999 -12.01172,4 -5.83812,2.19999 -10.91822,4 -11.2871,4 -0.70088,0 -16.98115,-10.24577 -20.98243,-13.20508 -1.8974,-1.40327 -2.08632,-1.97183 -1.06445,-3.20312 0.68315,-0.82315 10.09326,-5.93645 20.91016,-11.36328 29.16563,-14.632353 41.27272,-18.063575 66.82422,-18.933596 z m 13.17774,1.998046 4.25195,0.664063 c 2.33892,0.365737 7.95166,2.48921 12.47266,4.71875 21.49247,10.599141 32.74196,35.169795 26.74218,58.412105 -5.39565,20.90189 -17.65873,32.60073 -38.66992,36.88868 h -0.002 c -9.39262,1.91614 -26.85904,1.93028 -35.79297,0.0293 -3.57502,-0.7607 -10.32503,-2.62986 -15,-4.15429 -9.56349,-3.11849 -44.37643,-20.26005 -44.2793,-21.80274 0.0346,-0.54999 4.49969,-2.75048 9.92188,-4.88867 l 9.85742,-3.88672 12,1.64258 c 13.83375,1.89453 42.36785,2.19835 49.02734,0.52148 2.42691,-0.61111 4.9133,-1.71562 5.52539,-2.45312 1.62134,-1.9536 0.31677,-4.93719 -2.82031,-6.44727 -4.42012,-2.12768 -25.9473,-2.43835 -39.38476,-0.56836 -10.77453,1.50006 -12.01798,1.49838 -16.5,-0.0156 -7.82665,-2.64382 -24.77508,-9.48728 -25.68946,-10.37305 -0.46303,-0.44855 2.68696,-2.1588 7,-3.80078 14.74897,-5.61501 14.92458,-5.6459 19.63281,-3.44727 6.4667,3.01978 13.77413,4.2168 25.74805,4.2168 12.02124,0 18.15112,-1.61864 24.51758,-6.47461 l 3.4375,-2.62109 4.75391,2.10156 c 5.9808,2.64466 9.9841,6.36797 12.35742,11.49414 2.29001,4.94623 2.35678,8.58344 0.28711,15.55274 -2.75184,9.26645 -8.51779,13.22978 -21.56446,14.82422 -6.19321,0.75688 -6.24826,0.79031 -2.60351,1.55468 5.21824,1.09444 17.54294,-1.80637 22.86523,-5.38086 6.02442,-4.04606 8.90405,-9.23708 8.89649,-16.05078 -0.009,-10.47609 -7.18688,-20.61968 -17.33203,-24.49414 -2.55946,-0.97748 -4.6543,-1.97201 -4.6543,-2.20898 0,-0.23698 1.11272,-1.88756 2.4707,-3.66797 1.35799,-1.78041 3.15796,-4.88516 4,-6.90039 1.95697,-4.67927 1.97077,-14.742097 0.0293,-19.388674 z m -140.01172,18.865238 3.09961,2.94531 c 1.70475,1.61972 4.02865,4.23816 5.16406,5.81836 1.70362,2.37105 1.81829,3.01094 0.6582,3.66406 -0.77318,0.43528 -4.46352,3.07993 -8.20117,5.87695 -3.73765,2.79703 -6.88775,5.05733 -7,5.01954 -0.11237,-0.0366 -6.05508,-3.17848 -13.20508,-6.98243 -7.14999,-3.80395 -13.45,-7.09569 -14,-7.31445 -0.9365,-0.37246 5.81315,-7.63672 7.09571,-7.63672 0.3247,0 3.33188,2.48036 6.68164,5.51172 l 6.08984,5.51172 3.06641,-2.74805 c 1.68672,-1.51098 4.7506,-4.30247 6.80859,-6.20508 z m -130.98438,13.14648 c 20.47636,-0.0446 35.52034,3.16484 53.89453,11.4961 l 6.57032,2.97851 -5.48243,2.84375 c -3.01534,1.56416 -11.33242,5.19203 -18.48242,8.0625 -14.6878,5.89659 -13.0773,5.73489 -43.64453,4.38477 -13.62783,-0.60193 -20.32255,-0.49292 -24.87305,0.40234 -15.277977,3.00578 -18.418916,8.59831 -6.248043,11.125 6.555553,1.36089 20.672643,0.17786 39.765623,-3.33203 17.08199,-3.14026 22.54705,-2.84437 37,2 13.35709,4.47704 25.47323,9.438 25.49024,10.4375 0.0168,0.99281 -27.27991,14.22202 -37.49024,18.16992 -10.95426,4.23553 -24.98631,8.09482 -36.88086,10.14453 -28.425866,4.8985 -56.119594,-1.94207 -65.560544,-16.19531 -8.852312,-13.36456 -5.525657,-31.14295 8.208984,-43.86133 13.73963,-12.72298 35.02054,-18.58504 67.73242,-18.65625 z m 242.47266,1.5332 c 2.59557,-0.0285 4.71877,0.0641 6.02734,0.30664 l 5,0.92774 -3.55664,2.20117 c -1.95658,1.2106 -6.21447,2.89269 -9.46094,3.73828 -3.24646,0.8456 -7.94446,1.49924 -10.4414,1.45313 -5.34025,-0.0986 -14.7295,-2.02683 -17.45703,-3.58594 -1.6704,-0.95485 -1.28417,-1.2376 3,-2.19336 7.06348,-1.5758 19.10196,-2.76209 26.88867,-2.84766 z m -154.21289,0.63477 12.87109,7.6543 c 7.07856,4.20899 12.85887,7.93788 12.84375,8.28711 -0.0146,0.34922 -2.61303,2.47261 -5.77344,4.71875 l -5.74609,4.08398 -10.47656,-5.12109 c -5.76247,-2.81666 -12.6766,-6.01689 -15.36328,-7.11133 l -4.88477,-1.99024 8.26563,-5.25976 z m 56.64258,0.2793 c 0.48207,-0.16296 3.51273,2.02938 6.73632,4.87109 3.22364,2.84172 7.54884,6.29786 9.61133,7.67969 2.06249,1.38183 3.75,2.80664 3.75,3.16797 0,0.36117 -3.03748,2.29486 -6.75,4.29687 l -6.75,3.64063 -10.21289,-6.17969 c -5.61698,-3.39882 -10.21247,-6.40454 -10.21289,-6.67969 -9.1e-4,-0.57902 12.51875,-10.35422 13.82813,-10.79687 z m -79.74805,14.69726 4.67383,2.72461 c 7.94951,4.63393 21.17332,13.52416 21.14648,14.2168 -0.0139,0.36196 -4.30038,3.24568 -9.52539,6.4082 -5.225,3.16248 -10.27604,5.70841 -11.22461,5.65625 -0.94857,-0.0521 -6.22461,-1.86921 -11.72461,-4.03711 -5.5,-2.16793 -14.5,-5.23162 -20,-6.80859 -5.5,-1.57701 -9.325,-3.125 -8.5,-3.43945 0.825,-0.31431 5.55,-1.9837 10.5,-3.71094 4.95,-1.72725 12.52327,-4.91228 16.82813,-7.07617 z m 104.73437,3.99024 8.30664,3.95117 c 4.56805,2.17323 10.21721,4.51878 12.55469,5.21289 2.33749,0.69407 4.25057,1.5281 4.25,1.85351 -5.7e-4,0.32546 -3.93809,1.9805 -8.75,3.67774 -4.81194,1.6972 -9.425,3.37393 -10.25,3.72656 -0.89163,0.38105 -4.54201,-1.21355 -9,-3.93164 -11.37392,-6.93475 -11.253,-6.58198 -3.66015,-10.82812 z m -49.83593,0.0488 9.47461,5.65429 c 5.21068,3.10949 9.47265,5.80756 9.47265,5.99805 0,0.1903 -2.36251,1.84791 -5.25,3.68359 -2.88748,1.83568 -5.7,3.60711 -6.25,3.93555 -0.54999,0.32829 -5.16819,-1.89507 -10.26367,-4.94141 l -9.26562,-5.53906 6.04101,-4.39648 z m 122.03711,6.52148 c 8.582,0.0435 17.20713,0.5386 18.84179,1.44922 2.33299,1.29963 2.35508,1.40709 0.5586,2.7207 -2.38307,1.74255 -17.80473,1.6492 -28.99024,-0.17578 -4.39997,-0.71788 -8.675,-1.35233 -9.5,-1.41016 -1.10551,-0.0778 -0.97401,-0.42537 0.5,-1.32422 1.46752,-0.89495 10.00784,-1.30328 18.58985,-1.25976 z m -245.42774,4.60937 c 5.84851,0.0419 10.33789,0.28555 10.33789,0.77149 0,1.36029 -10.05065,3.21674 -22.71289,4.19726 -6.48238,0.50196 -12.01211,0.85666 -12.28711,0.78711 -0.275,-0.0694 -1.76348,-0.31638 -3.30859,-0.54882 -3.815431,-0.57355 -2.893328,-2.49861 1.88867,-3.94141 2.81099,-0.84815 16.33451,-1.33547 26.08203,-1.26563 z m 147.9668,3.57813 8.6582,4.92578 c 4.76198,2.70898 8.67043,5.18076 8.68555,5.49219 0.0154,0.31151 -2.86141,2.40895 -6.39258,4.66015 l -6.41992,4.0918 -9.01563,-5.60742 c -4.95874,-3.08451 -8.86167,-5.85628 -8.67382,-6.16016 0.18784,-0.30395 3.22528,-2.09337 6.75,-3.97656 z m -48.77539,1.95508 c 1.45495,-0.0845 3.58672,1.2043 9.42969,5.1914 l 8.75976,5.97852 -8.05469,5.11328 c -4.42984,2.81242 -8.37719,5.08026 -8.77148,5.03906 -0.3943,-0.0411 -5.3459,-2.36476 -11.00391,-5.16211 l -10.28711,-5.08593 8.28711,-4.65039 c 4.55801,-2.55818 9.1928,-5.22613 10.29883,-5.92969 0.4471,-0.28441 0.85681,-0.46598 1.3418,-0.49414 z m 21.95703,14.39648 c 1.26916,0 18.19663,11.98131 18.17773,12.86719 -0.007,0.34809 -2.39373,2.72097 -5.30468,5.27344 l -5.29297,4.64062 -11.44532,-6.48242 c -6.29461,-3.56508 -11.57548,-6.60714 -11.73437,-6.76172 -0.45037,-0.4382 14.43249,-9.53711 15.59961,-9.53711 z m -25.63477,15.78516 11.50586,7.85742 c 6.32864,4.32144 11.71313,8.18959 11.96485,8.5957 0.2519,0.40615 -0.80276,2.31863 -2.34375,4.25 -1.54107,1.93134 -3.02759,3.48922 -3.30274,3.45899 -0.275,-0.0291 -4.00529,-1.98963 -8.29101,-4.35742 -4.28571,-2.3678 -11.03571,-5.33387 -15,-6.58985 -3.96429,-1.25597 -8.00509,-2.55809 -8.97852,-2.89258 -1.3304,-0.45724 0.2438,-1.81374 6.33789,-5.46484 z m -37.96679,16.24804 3.29101,0.0332 -2.43555,2.02929 c -3.39703,2.82755 -12.59107,8.07932 -18.66796,10.66407 v -0.002 c -7.50326,3.19144 -13.19475,3.93019 -14.00586,1.81641 -2.08978,-5.44588 18.11526,-14.67935 31.81836,-14.54102 z m 53.02929,20.45508 c 2.21273,-0.036 9.4795,6.42649 14.47266,13.01172 6.2239,8.20834 8.37919,13.62492 9.02148,22.67969 0.81963,11.55428 -2.56845,20.43354 -9.55468,25.04101 -5.18283,3.41817 -13.4738,1.67721 -18.38868,-3.86328 -5.82224,-6.56345 -8.28567,-22.4038 -5.39257,-34.67578 1.70086,-7.2147 7.57711,-20.92857 9.46875,-22.09765 0.10041,-0.0621 0.22553,-0.0933 0.37304,-0.0957 z"
       transform="scale(0.26458333)"
       id="path4496"
       inkscape:connector-curvature="0" />
  </g>
</svg>
