<?xml version="1.0" encoding="UTF-8" standalone="no"?>
<!-- Created with Inkscape (http://www.inkscape.org/) -->

<svg
   xmlns:dc="http://purl.org/dc/elements/1.1/"
   xmlns:cc="http://creativecommons.org/ns#"
   xmlns:rdf="http://www.w3.org/1999/02/22-rdf-syntax-ns#"
   xmlns:svg="http://www.w3.org/2000/svg"
   xmlns="http://www.w3.org/2000/svg"
   xmlns:sodipodi="http://sodipodi.sourceforge.net/DTD/sodipodi-0.dtd"
   xmlns:inkscape="http://www.inkscape.org/namespaces/inkscape"
   width="112.9782mm"
   height="42.611683mm"
   viewBox="0 0 112.9782 42.611683"
   version="1.1"
   id="svg5055"
   inkscape:version="0.92.1 r15371"
   sodipodi:docname="vignette-2.svg">
  <defs
     id="defs5049" />
  <sodipodi:namedview
     id="base"
     pagecolor="#ffffff"
     bordercolor="#666666"
     borderopacity="1.0"
     inkscape:pageopacity="0.0"
     inkscape:pageshadow="2"
     inkscape:zoom="0.98994949"
     inkscape:cx="237.9892"
     inkscape:cy="3.7133933"
     inkscape:document-units="mm"
     inkscape:current-layer="layer1"
     showgrid="false"
     fit-margin-top="0"
     fit-margin-left="0"
     fit-margin-right="0"
     fit-margin-bottom="0"
     inkscape:window-width="1920"
     inkscape:window-height="1001"
     inkscape:window-x="-9"
     inkscape:window-y="-9"
     inkscape:window-maximized="1" />
  <metadata
     id="metadata5052">
    <rdf:RDF>
      <cc:Work
         rdf:about="">
        <dc:format>image/svg+xml</dc:format>
        <dc:type
           rdf:resource="http://purl.org/dc/dcmitype/StillImage" />
        <dc:title></dc:title>
      </cc:Work>
    </rdf:RDF>
  </metadata>
  <g
     inkscape:label="Layer 1"
     inkscape:groupmode="layer"
     id="layer1"
     transform="translate(-26.41055,-77.462386)">
    <path
       style="fill:#000000;stroke-width:0.99999994"
       d="m 238.09375,292.77148 c -9.85123,0.0297 -14.47064,0.87156 -24.2832,4.42383 -7.73409,2.79979 -6.78731,3.27649 1.32617,0.66797 13.23156,-4.25401 32.70056,-2.4995 46.11523,4.15625 8.58051,4.25721 33.8418,21.96514 33.8418,23.72266 0,0.34775 -1.4504,1.8427 -3.22266,3.32226 l -3.22265,2.68946 -5.12891,-3.78907 c -13.56068,-10.01787 -33.74863,-19.4857 -47.68945,-22.36523 -8.84534,-1.8271 -14.22236,-1.87293 -21.23633,-0.18359 -4.63544,1.11642 -5.47396,1.00665 -11.5,-1.4961 -20.8317,-8.65199 -45.44011,-11.99772 -62.16406,-8.45312 -7.52455,1.59481 -19.44761,6.81239 -26.23242,11.48047 -12.1561,8.36359 -17.986388,27.92628 -13.21485,44.33984 6.06909,20.8769 36.0757,39.09402 57.61133,34.97656 4.22706,-0.80817 3.92384,-0.89935 -5,-1.48242 -12.02045,-0.78542 -21.27246,-3.66945 -29.24023,-9.11523 -7.46605,-5.10282 -12.83849,-11.86659 -15.9668,-20.10547 -3.20357,-8.43716 -3.14757,-22.50229 0.12305,-30.85743 5.2535,-13.42061 20.57906,-24.6915 36.64062,-26.94531 13.94804,-1.95723 37.00169,1.49071 53.125,7.94531 l 6.41602,2.56836 -5.11719,3.44727 c -18.07873,12.17495 -16.83479,38.01505 2.23047,46.32813 7.2102,3.14384 20.08284,3.89637 26.26562,1.53515 9.84155,-3.75855 13.67632,-13.66147 7.9336,-20.48633 l -2.58789,-3.07617 h 5.56836 5.56835 l 13.32032,12.93164 13.32031,12.9336 0.0645,13.3164 c 0.0568,11.57543 0.41255,14.38636 2.71485,21.47656 4.57704,14.09545 13.9142,25.44753 29.62109,36.01758 16.88833,11.36516 34.71323,17.91659 55,20.21485 34.99378,3.96434 75.19347,-5.19217 102.4707,-23.3418 15.77246,-10.49465 31.14388,-29.55245 36.16211,-44.83398 2.29096,-6.97662 2.70944,-10.02328 2.78125,-20.21485 0.0688,-9.73791 -0.25069,-12.61539 -1.69726,-15.26367 -1.36876,-2.50587 -1.62899,-4.42111 -1.1211,-8.25 l 0.66211,-4.98633 h 8.83594 c 7.81251,0 8.95986,0.23164 9.90625,2 1.58264,2.95718 6.51461,2.67016 8.5918,-0.5 1.5174,-2.3159 1.5174,-2.68413 0,-5 -2.07247,-3.16297 -6.98726,-3.44145 -8.82422,-0.5 -1.1017,1.76414 -2.33269,2 -10.42969,2 H 497.252 l -0.66015,-3.00781 c -0.85452,-3.89057 -7.48743,-12.71933 -12.21875,-16.26563 -6.71789,-5.03523 -17.26805,-6.96844 -25.52344,-4.67578 -3.2804,0.91102 -4.27558,0.72959 -8.02344,-1.46679 -5.26545,-3.08575 -16.02778,-5.67503 -20.73242,-4.98829 -18.23271,2.6616 -29.48833,15.8239 -23.47461,27.45313 l 1.52539,2.95117 h -10.14844 -10.14843 l -6.24024,-5.83789 c -3.43272,-3.21112 -8.38193,-7.03586 -10.99804,-8.49805 -17.9486,-10.03166 -39.40601,-11.34629 -58.10352,-3.5625 l -7.10547,2.95703 -10.80078,-6.48632 C 272.4288,299.27567 253.7511,292.7242 238.0938,292.77148 Z m -14.14063,13.64063 c 6.84556,-0.10662 15.8648,1.92962 22.26563,5.1582 6.56969,3.31377 20.77322,13.0736 26.875,18.4668 v -0.002 l 4.5,3.97851 -12.03906,0.002 -12.03907,0.004 -13.81445,-8.9668 c -7.5984,-4.93145 -16.69591,-10.65046 -20.21484,-12.70898 -7.07271,-4.13734 -6.9019,-4.7173 1.68164,-5.75195 0.87527,-0.10551 1.80722,-0.16446 2.78515,-0.17969 z m 212.30274,0.41211 c 5.91288,0.0838 14.83789,3.15908 14.83789,5.11328 0,0.56678 -1.31065,1.70898 -2.91211,2.53711 -6.10692,3.15803 -8.84526,9.76158 -5.7832,13.94922 1.5953,2.1817 5.54706,1.80584 7.09179,-0.67383 0.84862,-1.36218 0.69392,-2.48456 -0.67578,-4.88086 -1.61389,-2.82323 -1.63689,-3.32858 -0.25,-5.44531 0.84091,-1.28337 2.39218,-2.79671 3.44727,-3.36133 4.37046,-2.33904 10.95375,11.58116 9.57422,20.24414 -2.47563,15.54634 -13.27654,25.77027 -32.49219,30.75781 h -0.002 c -8.28133,2.14942 -23.3,3.25937 -31.07422,2.29688 l -3.57227,-0.44141 0.0215,-9.20117 c 0.0167,-7.36044 -0.4177,-10.17429 -2.17578,-14.07617 -1.20862,-2.68241 -2.19727,-5.26988 -2.19727,-5.75 0,-0.48007 4.4201,-0.87305 9.82422,-0.87305 9.28721,0 9.95855,0.1429 12.25,2.5957 4.19274,4.48797 8.36601,5.91998 15.92578,5.4668 2.13577,-0.12801 1.93662,-0.35096 -1.36328,-1.52734 -9.28872,-3.31136 -13.31301,-12.26061 -10.25,-22.79688 2.99388,-10.2986 8.38215,-14.09498 19.77539,-13.93359 z m -229.06055,2.7539 4.19922,2.25196 c 4.90749,2.63217 20.97103,13.98477 26.27344,18.56836 l 3.67187,3.17187 -8.87304,-0.65234 c -4.8802,-0.3591 -10.09755,-1.22331 -11.59375,-1.92188 -3.49338,-1.6309 -5.7793,0.0211 -5.7793,4.17774 0,3.97059 2.99221,4.98402 9.02539,3.05469 3.97841,-1.27212 5.04002,-1.28634 7.51758,-0.0957 6.64327,3.1926 4.62978,14.17348 -3.42969,18.70313 -11.5559,6.49478 -31.11178,-1.55951 -35.57226,-14.65039 -4.01655,-11.78795 -0.89892,-21.90712 8.82421,-28.63672 z m 249.52344,2.43946 3.9375,0.0117 c 4.75604,0.0118 12.76635,3.58454 17.64844,7.87109 3.29427,2.8924 6.49576,8.2887 8.22656,13.86914 0.64732,2.08709 0.50557,2.1781 -1.93555,1.25 -9.4278,-3.58447 -21.50195,3.86487 -21.50195,13.26563 0,8.68093 8.38945,15.82406 15.41797,13.12695 0.87001,-0.33385 1.58203,-1.23385 1.58203,-2 0,-1.61106 -1.5925,-1.86096 -2.5,-0.39258 -1.42889,2.31201 -6.293,0.99953 -9.39648,-2.53515 -4.20484,-4.78882 -4.14104,-8.62845 0.21679,-12.98633 4.34638,-4.34638 8.76625,-5.15166 15.19727,-2.76953 l 4.98242,1.8457 0.30273,5.86523 c 0.37501,7.23183 -2.49331,17.26058 -6.79687,23.75782 -4.11674,6.21511 -15.29357,16.63755 -22.60352,21.07812 -3.25738,1.97873 -9.51738,4.83772 -13.91211,6.35547 -7.09889,2.45174 -9.6638,2.79163 -22.99023,3.05469 -12.99368,0.25636 -16.33755,-0.0226 -25,-2.08399 -9.80164,-2.33261 -21.74328,-6.62611 -29.66211,-10.66601 l -3.98633,-2.03321 3.98828,-4.32812 c 4.26849,-4.63075 7.16016,-9.48404 7.16016,-12.01953 0,-1.25896 0.8237,-1.45077 4.25,-0.9961 8.45114,1.12162 10.75,1.55911 10.75,2.04493 0,1.47772 -4.25536,8.47437 -6.82813,11.22851 -1.63642,1.75185 -2.60385,3.18555 -2.15039,3.18555 2.01755,0 6.75492,-5.25395 8.93555,-9.91016 l 2.38477,-5.08984 5.57812,-0.008 c 9.19911,-0.0135 23.13252,-1.8788 30.58008,-4.09375 21.08069,-6.26964 35.84073,-20.54631 37.24414,-36.02344 0.57581,-6.35018 -1.50427,-11.81318 -6.52148,-17.125 z m -123.33594,6.43359 c 15.29898,-0.23168 33.5959,5.23887 44.59571,13.72852 2.33283,1.80053 1.77489,1.83984 -25.58594,1.83984 h -27.97266 l -6.41211,-5.12695 c -3.52766,-2.81964 -6.54066,-5.44531 -6.69336,-5.83399 -0.42104,-1.07116 6.59515,-2.92342 15.72657,-4.15234 2.03323,-0.27363 4.15622,-0.42198 6.34179,-0.45508 z m -34.73633,9.75 3.9004,2.91016 3.90234,2.9082 h -7.23633 c -7.6021,0 -8.03249,-0.50237 -3.3125,-3.86328 z m -24.55859,7.95313 c 4.50041,0.0309 5.96997,0.42746 7.14649,1.49218 1.6162,1.46269 1.68385,1.91709 0.48828,3.28516 -0.76309,0.87322 -2.1297,3.05036 -3.03516,4.83789 -0.90546,1.78749 -1.98387,3.25 -2.39648,3.25 -0.41262,0 -4.78885,-2.8125 -9.72461,-6.25 l -8.97266,-6.25 10.88086,-0.28515 c 2.2753,-0.0596 4.11314,-0.0904 5.61328,-0.0801 z m 25.44336,0.0664 c 0.86411,0.005 1.81563,0.0336 2.8125,0.0859 7.1396,0.37485 7.42014,0.49501 18.51563,7.95508 6.19687,4.16652 15.48047,9.62433 20.6289,12.1289 l 9.36133,4.55469 -0.88281,4.71875 c -0.4848,2.59499 -1.5647,5.76171 -2.40039,7.03711 -0.8357,1.27544 -1.8463,2.31225 -2.2461,2.30469 -0.39983,-0.008 -7.73945,-5.2951 -16.31054,-11.75 -26.10471,-19.65934 -33.81617,-25.70073 -33.86719,-26.5332 -0.0202,-0.32925 1.79634,-0.5172 4.38867,-0.50196 z m 33.74805,0.79883 c 3.04422,0 5.61949,0.74164 7.89258,2.27344 3.20216,2.15796 7.92187,8.04159 7.92187,9.875 0,0.46877 -0.33746,0.83518 -0.75,0.8125 -0.78289,-0.0415 -17.53995,-10.90247 -18.83984,-12.21094 -0.40982,-0.4125 1.29005,-0.75 3.77539,-0.75 z m 9.64453,0 h 4.65039 c 5.3071,0 7.26895,0.84982 13.39258,5.80078 4.62678,3.74076 8.06572,9.87505 8.10351,14.44922 0.0121,1.51249 -0.31406,2.73154 -0.72656,2.70508 -0.4125,-0.0252 -3.53315,-1.33418 -6.93359,-2.9082 -4.86751,-2.25309 -6.59964,-3.6801 -8.14649,-6.70508 -1.08064,-2.11325 -3.84917,-5.97928 -6.15234,-8.5918 z m 16.86914,0 h 11.47656 c 10.62649,0 11.63142,0.16669 13.59961,2.26172 3.61145,3.84424 6.35805,11.47764 6.95117,19.32031 l 0.56055,7.41797 -2.89258,-0.11523 c -3.25156,-0.13032 -5.46343,-0.5704 -10.04297,-1.99414 -2.57152,-0.79949 -3.27068,-1.65476 -3.82812,-4.6836 -0.85221,-4.63049 -4.05197,-12.01385 -6.3125,-14.5664 -0.94152,-1.06315 -3.46634,-3.21762 -5.61133,-4.78711 z m -74.99609,4.02149 c 0.43782,0.0115 6.42187,4.73525 13.29687,10.49804 6.875,5.7628 18.89472,14.64029 26.71094,19.72852 7.81621,5.08826 14.22732,9.52079 14.25,9.84961 0.0213,0.32897 -1.81713,1.43586 -4.08594,2.45898 -5.35344,2.41406 -3.21012,3.11096 3.16016,1.02735 l 4.9375,-1.61524 5.71093,3.22266 5.71094,3.22265 -3.94726,1.67579 c -10.67959,4.53116 -15.65284,3.25441 -30.36329,-7.79493 -10.74281,-8.06916 -38.69151,-29.68309 -40.30468,-31.16992 -0.84276,-0.77673 3.75032,-11.13375 4.92383,-11.10351 z m 211.32031,13.69336 c 0.22291,-0.0106 0.40805,0.24774 0.59179,0.72656 1.13039,2.94569 -1.31424,14.97166 -4.6914,23.08398 -3.18667,7.65472 -8.93534,16.64504 -14.27539,22.32227 -7.75476,8.24443 -23.78493,17.48246 -36.70313,21.15234 -7.32041,2.07976 -26.468,3.44118 -33.44531,2.37891 -16.34585,-2.48856 -30.01325,-6.71811 -44.38672,-13.73828 -8.90003,-4.34688 -22.82708,-12.36729 -23.57422,-13.57618 -0.23353,-0.37791 2.28819,-1.24881 5.60352,-1.93359 3.31532,-0.68477 7.48747,-1.94028 9.27148,-2.79101 3.06788,-1.46298 3.50954,-1.41325 8.16407,0.92968 6.96196,3.50434 19.03221,7.39069 30.8164,9.92188 7.69913,1.65373 13.55674,2.17629 24.60547,2.1914 17.04106,0.0238 23.85685,-1.39979 37.5,-7.83398 18.71751,-8.82735 31.18752,-21.39222 38.08984,-38.375 1.26622,-3.11549 1.94318,-4.43574 2.4336,-4.45898 z M 357.5625,363.9375 c 1.29049,0.0665 3.27904,0.89931 6.64453,2.40234 l 4.87891,2.17969 -2.49219,5.33789 c -1.37042,2.93632 -3.42432,6.64884 -4.56445,8.25 -1.14014,1.60116 -2.37898,2.88974 -2.75391,2.86328 -0.37508,-0.027 -2.25661,-1.17737 -4.18164,-2.55664 -1.92499,-1.37926 -4.13311,-2.87704 -4.90625,-3.32812 -1.15381,-0.67314 -0.99689,-1.39619 0.88086,-4.03321 1.25824,-1.76704 2.84932,-5.08488 3.53516,-7.37304 0.79335,-2.64683 1.29978,-3.82773 2.95898,-3.74219 z m -81.86133,3.01953 c 0.73998,-0.0865 4.69387,2.74985 9.1836,6.61719 29.91541,25.76861 70.7212,47.61677 100.79101,53.9668 10.85367,2.29205 27.15926,2.97031 37.69727,1.5664 18.2629,-2.43307 38.29572,-10.26919 49.96093,-19.54101 10.2104,-8.11552 19.59842,-22.188 23.26172,-34.8711 2.42166,-8.38435 2.77846,-6.46609 0.53516,2.87891 -4.95953,20.66012 -15.16011,34.42709 -35.17774,47.47851 -16.46547,10.73541 -33.47169,18.12202 -50.85937,22.08985 h -0.002 c -11.39407,2.60005 -32.73043,3.28266 -44,1.4082 -17.5968,-2.9269 -33.21699,-8.6925 -46.07422,-17.00976 -8.34433,-5.39793 -19.56789,-16.34692 -23.32031,-22.75 -3.0511,-5.20627 -6.36752,-7.77149 -10.05079,-7.77149 -1.84989,0 -2.68124,0.66202 -3.14257,2.5 -0.34507,1.37503 -0.96215,2.5 -1.3711,2.5 -0.91729,0 -6.56726,-12.39362 -7.52148,-16.5 -0.83135,-3.58035 -0.84222,-21.16522 -0.0137,-22.50586 0.02,-0.0323 0.0542,-0.0509 0.10351,-0.0566 z"
       transform="scale(0.26458333)"
       id="path4496"
       inkscape:connector-curvature="0" />
  </g>
</svg>
