<?xml version="1.0" encoding="UTF-8" standalone="no"?>
<!-- Created with Inkscape (http://www.inkscape.org/) -->

<svg
   xmlns:dc="http://purl.org/dc/elements/1.1/"
   xmlns:cc="http://creativecommons.org/ns#"
   xmlns:rdf="http://www.w3.org/1999/02/22-rdf-syntax-ns#"
   xmlns:svg="http://www.w3.org/2000/svg"
   xmlns="http://www.w3.org/2000/svg"
   xmlns:sodipodi="http://sodipodi.sourceforge.net/DTD/sodipodi-0.dtd"
   xmlns:inkscape="http://www.inkscape.org/namespaces/inkscape"
   width="105.66731mm"
   height="16.404165mm"
   viewBox="0 0 105.66731 16.404165"
   version="1.1"
   id="svg8"
   inkscape:version="0.92.1 r15371"
   sodipodi:docname="vignette-e.svg">
  <defs
     id="defs2" />
  <sodipodi:namedview
     id="base"
     pagecolor="#ffffff"
     bordercolor="#666666"
     borderopacity="1.0"
     inkscape:pageopacity="0.0"
     inkscape:pageshadow="2"
     inkscape:zoom="1.979899"
     inkscape:cx="118.35164"
     inkscape:cy="-41.362332"
     inkscape:document-units="mm"
     inkscape:current-layer="layer1"
     showgrid="false"
     fit-margin-top="0"
     fit-margin-left="0"
     fit-margin-right="0"
     fit-margin-bottom="0"
     inkscape:window-width="1920"
     inkscape:window-height="1001"
     inkscape:window-x="-9"
     inkscape:window-y="-9"
     inkscape:window-maximized="1" />
  <metadata
     id="metadata5">
    <rdf:RDF>
      <cc:Work
         rdf:about="">
        <dc:format>image/svg+xml</dc:format>
        <dc:type
           rdf:resource="http://purl.org/dc/dcmitype/StillImage" />
        <dc:title></dc:title>
      </cc:Work>
    </rdf:RDF>
  </metadata>
  <g
     inkscape:label="Layer 1"
     inkscape:groupmode="layer"
     id="layer1"
     transform="translate(-25.338631,-8.3473512)">
    <path
       style="fill:#000000;stroke-width:0.26458335"
       d="M 59.314811,23.743598 C 58.699599,23.189243 57.391319,22.15333 56.407524,21.441569 54.496899,20.059258 53.30145,18.251105 53.30145,16.743533 V 15.9832 l -1.930694,1.065766 c -4.509294,2.489186 -11.171971,4.637655 -15.380858,4.959764 -5.001939,0.382802 -9.56352,-1.825866 -10.471932,-5.070395 -0.685468,-2.448253 0.649974,-4.354434 3.052215,-4.356664 1.324581,-0.0012 2.114341,0.531254 2.493961,1.681512 0.366177,1.10953 0.03404,2.086449 -0.92243,2.713152 -0.906174,0.593747 -1.999722,0.241544 -2.350955,-0.757183 -0.327779,-0.932032 0.0075,-1.257759 0.528655,-0.513653 0.533932,0.762295 1.534273,0.753824 1.884993,-0.01596 0.819505,-1.798708 -1.83163,-3.030145 -3.427436,-1.592025 -0.629945,0.567698 -0.616367,2.61095 0.0238,3.581797 0.662708,1.005027 1.983783,1.935344 3.73238,2.628387 2.690787,1.066472 8.083463,0.666392 12.978715,-0.962885 l 1.190625,-0.396273 -1.35075,0.142922 c -0.9015,0.09539 -1.671488,0.0089 -2.315104,-0.26001 -0.807172,-0.337257 -0.964354,-0.532992 -0.964354,-1.200875 0,-0.517156 0.179462,-0.893987 0.509999,-1.070885 0.5445,-0.291407 1.342084,-0.116295 1.342084,0.29466 0,0.136566 0.292244,0.540546 0.649432,0.897734 1.25914,1.25914 4.094068,0.659816 8.391555,-1.774036 1.807155,-1.023469 2.82061,-1.793507 3.450414,-2.62167 1.717717,-2.258729 4.490582,-3.4215288 8.159123,-3.4215288 1.364147,0 1.839061,-0.0919 1.839061,-0.355868 0,-0.564729 0.903393,-1.231632 1.66838,-1.231632 0.861037,0 1.632678,1.049226 1.413598,1.9221148 -0.127167,0.506672 0.0386,0.703827 1.037219,1.233592 1.717493,0.911127 4.083871,3.567703 5.154227,5.786305 0.502169,1.040882 1.004991,1.895526 1.117383,1.899209 0.112392,0.0037 0.742672,-0.489513 1.400622,-1.09599 l 1.196274,-1.102686 -1.12449,-1.145771 c -0.618468,-0.630174 -1.324411,-1.209224 -1.568759,-1.286777 -0.333788,-0.10594 -0.475054,-0.550202 -0.568058,-1.786439 -0.06808,-0.904988 -0.224597,-1.882659 -0.347805,-2.172603 -0.169868,-0.399737 0.05458,-0.306516 0.928497,0.385642 0.956326,0.757423 2.688071,3.024857 3.301659,4.322977 0.116075,0.245568 0.183099,0.245568 0.299174,0 0.613588,-1.29812 2.345333,-3.565554 3.301659,-4.322977 0.873919,-0.692158 1.098365,-0.785379 0.928497,-0.385642 -0.123208,0.289944 -0.279722,1.267615 -0.347805,2.172603 -0.093,1.236237 -0.23427,1.680499 -0.568058,1.786439 -0.244348,0.07755 -0.950291,0.656603 -1.568759,1.286777 l -1.12449,1.145771 1.196274,1.102686 c 0.65795,0.606477 1.28823,1.099673 1.400622,1.09599 0.112392,-0.0037 0.615214,-0.858327 1.117383,-1.899209 1.070356,-2.218602 3.436734,-4.875178 5.154227,-5.786305 0.998617,-0.529765 1.164386,-0.72692 1.037219,-1.233592 -0.225417,-0.8981378 0.552146,-1.9221148 1.459572,-1.9221148 0.725447,0 1.622406,0.686775 1.622406,1.24223 0,0.162784 1.073322,0.326206 2.636965,0.401501 2.287672,0.1101588 2.865715,0.2395918 4.363885,0.9771388 1.073473,0.528463 2.052963,1.255586 2.588563,1.921597 1.29561,1.611087 1.4655,1.745586 4.03663,3.19583 4.12543,2.326937 6.97542,2.90513 8.21411,1.666438 0.35719,-0.357188 0.64944,-0.761168 0.64944,-0.897734 0,-0.410955 0.79758,-0.586067 1.34208,-0.29466 0.33054,0.176898 0.51,0.553729 0.51,1.070885 0,0.667883 -0.15718,0.863618 -0.96435,1.200875 -0.64602,0.269922 -1.41025,0.355067 -2.31511,0.257933 l -1.35075,-0.144999 1.5875,0.516637 c 4.77262,1.553204 9.91043,1.89784 12.58184,0.843968 1.74651,-0.688999 3.06866,-1.619108 3.73238,-2.62568 0.64017,-0.970847 0.65375,-3.014099 0.0238,-3.581797 -1.5958,-1.43812 -4.24694,-0.206683 -3.42743,1.592025 0.35072,0.769786 1.35106,0.778257 1.88499,0.01596 0.52119,-0.744107 0.85644,-0.41838 0.52866,0.513653 -0.35124,0.998726 -1.44479,1.35093 -2.35096,0.757182 -0.95647,-0.626703 -1.2886,-1.603622 -0.92243,-2.713151 0.37962,-1.150259 1.16938,-1.682741 2.49396,-1.681512 2.40224,0.0022 3.73768,1.90841 3.05222,4.356663 -0.90841,3.24453 -5.47,5.453198 -10.47194,5.070395 -4.20888,-0.322109 -10.87156,-2.470578 -15.38085,-4.959763 L 103.04311,15.9832 v 0.760333 c 0,1.511128 -1.19498,3.315872 -3.106073,4.690993 -0.9838,0.707889 -2.285095,1.759129 -2.891774,2.33609 -0.898359,0.854353 -1.229776,1.017215 -1.785938,0.877628 -1.021617,-0.25641 -0.908114,-1.249631 0.243157,-2.127748 0.994754,-0.758737 1.182294,-1.208564 0.503865,-1.208564 -0.641212,0 -1.918885,-1.006898 -2.359941,-1.859803 -1.55303,-3.00323 1.962653,-6.143264 4.812843,-4.298593 1.315348,0.851304 1.266078,3.3391 -0.07279,3.675133 -1.611995,0.404585 -2.876756,-0.719097 -2.116079,-1.880037 0.224745,-0.343007 0.665657,-0.705227 0.979805,-0.804933 0.447837,-0.142138 0.492207,-0.231296 0.205486,-0.41289 -1.146053,-0.725847 -3.143814,0.599403 -3.143814,2.085506 0,1.622344 2.301989,3.18912 4.170575,2.838571 1.941508,-0.364227 3.793038,-2.987422 3.351198,-4.747863 -0.35324,-1.407403 -5.46896,-2.558948 -9.021074,-2.030637 -2.221143,0.330354 -4.816076,1.365003 -5.564315,2.218598 -0.460227,0.52503 -0.459904,0.537923 0.0091,0.366449 0.267383,-0.09775 0.923841,-0.247717 1.458797,-0.33326 0.780923,-0.124875 1.073639,-0.04394 1.484995,0.410607 0.592047,0.654203 0.679437,2.141124 0.162454,2.764053 -0.483119,0.58212 -1.522069,0.528034 -2.066288,-0.107567 -1.335688,-1.559971 -4.8603,0.239938 -5.771946,2.947553 l -0.281739,0.836771 -1.930945,-2.355183 c -1.062009,-1.295351 -2.025203,-2.355183 -2.140424,-2.355183 -0.115221,0 -1.078415,1.059832 -2.140437,2.355183 l -1.930945,2.355183 -0.281739,-0.836771 c -0.911646,-2.707615 -4.436259,-4.507524 -5.771947,-2.947553 -0.544219,0.635601 -1.583169,0.689687 -2.066287,0.107567 -0.516983,-0.622929 -0.429594,-2.10985 0.162454,-2.764053 0.411356,-0.454545 0.704072,-0.535482 1.484995,-0.410607 0.534956,0.08554 1.191414,0.23551 1.458796,0.33326 0.469046,0.171474 0.469369,0.158581 0.0091,-0.366449 -0.74824,-0.853595 -3.343173,-1.888244 -5.564315,-2.218598 -3.552114,-0.528311 -8.66783,0.623234 -9.021065,2.030637 -0.441844,1.760441 1.40969,4.383636 3.351189,4.747863 1.868599,0.350549 4.170588,-1.216227 4.170588,-2.838571 0,-1.486103 -1.997761,-2.811353 -3.143814,-2.085506 -0.286721,0.181594 -0.242351,0.270752 0.205486,0.41289 0.881062,0.279638 1.4531,1.307757 1.097412,1.972367 -0.636521,1.189348 -2.702377,1.030354 -3.145965,-0.242122 -0.792607,-2.273673 1.695207,-4.057194 4.061492,-2.911695 1.775238,0.859378 2.463597,2.802154 1.59084,4.48988 -0.441056,0.852905 -1.718729,1.859803 -2.359941,1.859803 -0.678429,0 -0.490889,0.449827 0.503865,1.208564 1.287806,0.982257 1.198337,2.23102 -0.159843,2.23102 -0.136872,0 -0.752211,-0.453563 -1.367422,-1.007918 z m 10.768394,-9.338264 c -1.673487,-1.762513 -4.83484,-2.874879 -8.184542,-2.879845 -2.437646,-0.0036 -3.408609,0.22603 -5.068404,1.198736 -1.398482,0.819564 -1.353733,1.061949 0.122658,0.664398 4.478325,-1.205887 9.440025,-0.667748 12.629085,1.369734 1.314865,0.840064 1.506119,0.705354 0.501203,-0.353023 z m 19.288438,-0.876237 c 2.947535,-0.985294 6.687852,-1.037731 10.020014,-0.140474 1.476393,0.397551 1.521143,0.155166 0.12265,-0.664398 -1.659791,-0.972706 -2.630754,-1.202349 -5.0684,-1.198736 -3.27728,0.0049 -5.901063,0.888637 -7.931891,2.671727 -1.320969,1.159826 -1.157177,1.425214 0.323374,0.523953 0.691224,-0.42077 1.831639,-0.957203 2.534253,-1.192072 z"
       id="path4496"
       inkscape:connector-curvature="0" />
  </g>
</svg>
