<?xml version="1.0" encoding="UTF-8" standalone="no"?>
<!-- Created with Inkscape (http://www.inkscape.org/) -->

<svg
   xmlns:dc="http://purl.org/dc/elements/1.1/"
   xmlns:cc="http://creativecommons.org/ns#"
   xmlns:rdf="http://www.w3.org/1999/02/22-rdf-syntax-ns#"
   xmlns:svg="http://www.w3.org/2000/svg"
   xmlns="http://www.w3.org/2000/svg"
   xmlns:sodipodi="http://sodipodi.sourceforge.net/DTD/sodipodi-0.dtd"
   xmlns:inkscape="http://www.inkscape.org/namespaces/inkscape"
   width="114.93984mm"
   height="45.741589mm"
   viewBox="0 0 114.93984 45.741589"
   version="1.1"
   id="svg4504"
   inkscape:version="0.92.1 r15371"
   sodipodi:docname="vignette-1.svg">
  <defs
     id="defs4498" />
  <sodipodi:namedview
     id="base"
     pagecolor="#ffffff"
     bordercolor="#666666"
     borderopacity="1.0"
     inkscape:pageopacity="0.0"
     inkscape:pageshadow="2"
     inkscape:zoom="0.7"
     inkscape:cx="255.19156"
     inkscape:cy="-23.887692"
     inkscape:document-units="mm"
     inkscape:current-layer="layer1"
     showgrid="false"
     fit-margin-top="0"
     fit-margin-left="0"
     fit-margin-right="0"
     fit-margin-bottom="0"
     inkscape:window-width="1920"
     inkscape:window-height="1001"
     inkscape:window-x="-9"
     inkscape:window-y="-9"
     inkscape:window-maximized="1" />
  <metadata
     id="metadata4501">
    <rdf:RDF>
      <cc:Work
         rdf:about="">
        <dc:format>image/svg+xml</dc:format>
        <dc:type
           rdf:resource="http://purl.org/dc/dcmitype/StillImage" />
        <dc:title></dc:title>
      </cc:Work>
    </rdf:RDF>
  </metadata>
  <g
     inkscape:label="Layer 1"
     inkscape:groupmode="layer"
     id="layer1"
     transform="translate(84.204108,-76.917073)">
    <path
       style="fill:#000000;stroke-width:0.99999994"
       d="m -213.54297,290.71875 c -16.2502,0.17932 -32.21523,3.17975 -46.90625,8.98828 -11.29578,4.46615 -11.04032,5.35242 0.40625,1.41211 16.05275,-5.5259 24.85443,-6.89791 39.91406,-6.22656 19.47528,0.8682 30.82445,4.36322 57.83399,17.81445 20.06148,9.99094 48.67626,26.07145 48.08789,27.02344 -0.30235,0.48922 -2.28216,1.77287 -4.40039,2.85351 l -3.85156,1.96485 -17.33204,-8.41797 c -28.70887,-13.94574 -48.39193,-19.68971 -73.46679,-21.43555 -27.40306,-1.90789 -47.24673,1.8201 -69.86328,13.125 -20.41121,10.20261 -30.73158,24.34177 -34.49414,47.25781 -2.31625,14.10716 1.65429,26.27104 12.48046,38.23438 18.31788,20.2419 38.42152,26.56613 56.90821,17.90039 8.40075,-3.93789 10.10811,-5.81508 3.10547,-3.41406 -4.13586,1.41804 -8.64087,2.07145 -14.5,2.10547 -14.99194,0.087 -27.88114,-5.28826 -39.10938,-16.3125 -10.93789,-10.73919 -15.54523,-22.71141 -14.625,-38 0.61595,-10.23334 3.275,-17.88493 9.50586,-27.34571 10.09547,-15.32871 31.86116,-26.49774 55.04688,-28.24804 15.95239,-1.20423 42.70861,2.53522 61.68164,8.62109 19.64982,6.30293 51.13503,20.13732 50.00195,21.9707 -0.28201,0.4563 -3.58816,2.03552 -7.3457,3.50977 l -6.83204,2.67969 -7.14062,-3.59571 c -17.07899,-8.60084 -35.74918,-14.31845 -49.68359,-15.21484 -20.85857,-1.34181 -40.95508,7.85801 -40.95508,18.74805 0,3.46461 0.60125,4.62114 4.09375,7.8789 2.25145,2.1001 6.40301,4.63781 9.22656,5.64063 4.60585,1.63585 5.13477,2.12716 5.13477,4.77344 0,8.50437 8.33629,16.98193 20.375,20.71875 6.08057,1.88738 8.44946,2.07003 20.5,1.58984 16.13954,-0.64313 31.27211,-4.11675 46.76562,-10.73633 l 9.79883,-4.1875 8.875,4.34766 c 4.88095,2.39134 9.09206,4.69858 9.35742,5.12695 0.69199,1.11712 -15.0499,8.27044 -22.3164,10.14063 -3.37939,0.86974 -9.55108,1.58203 -13.71485,1.58203 -6.4929,0 -7.72039,0.27775 -8.61914,1.95703 -1.5373,2.87248 0.63408,3.63425 14.05469,4.92969 6.36687,0.61455 14.01687,1.83473 17,2.71093 6.73506,1.97825 16.04967,6.84129 18.88867,9.86328 l 2.13867,2.27735 -2.30078,4.38086 c -4.32771,8.23532 -2.46439,25.04809 3.50586,31.63086 1.12235,1.23753 2.60507,2.25 3.29492,2.25 1.69821,0 4.36331,-2.78239 5.480471,-5.72071 1.61755,-4.2545 1.011074,-18.31491 -1.046875,-24.27734 l -1.896486,-5.49805 2.380861,-3.00195 c 7.196061,-9.07219 14.070556,-14.40622 23.265625,-18.05078 3.82518,-1.51616 5.31006,-1.56461 13.751953,-0.44727 12.710199,1.68227 24.460937,-0.0191 24.460937,-3.54297 0,-3.64773 -16.5544,-4.97417 -30.65039,-2.45507 l -7.003907,1.25195 -8.921875,-4.18164 c -4.907709,-2.29962 -10.885081,-5.33118 -13.283203,-6.73633 l -4.361331,-2.55469 9.2793,-4.97656 c 10.346532,-5.54962 9.040314,-5.53224 23.441406,-0.30664 22.583739,8.19481 44.86389,11.50351 64.3378909,9.55664 37.0762391,-3.70658 59.8178131,-20.57327 61.0000001,-45.24414 0.312521,-6.52177 -0.0029,-8.48985 -2.076172,-13 -3.189509,-6.93846 -7.013704,-11.36184 -13.308594,-15.38867 -8.159454,-5.21951 -15.133244,-6.84491 -28.953125,-6.75 -27.862099,0.1909 -57.110348,10.50831 -89.5,31.57422 -2.435497,1.58403 -2.740435,1.47621 -11.814453,-4.22657 l -9.314453,-5.85351 6.367188,-3.56055 c 31.95939,-17.87269 81.902546,-34.46989 111.855468,-37.17187 23.393811,-2.1103 55.381652,7.8148 68.642578,21.29882 5.838577,5.9368 12.015986,17.65627 14.898436,28.26368 3.64498,13.41359 1.95561,31.00753 -4.123045,42.95703 -9.891893,19.44555 -33.982325,32.99822 -56.511719,31.79297 l -8.5,-0.45313 4.5,1.47461 c 2.571772,0.84355 8.35649,1.49087 13.5,1.50977 11.2811,0.0417 22.768082,-3.64718 33.431641,-10.73633 18.613983,-12.37455 27.324223,-26.24223 29.623043,-47.1582 2.42113,-22.02873 -14.34059,-50.52725 -35.751949,-60.78711 -19.428662,-9.30977 -50.816916,-12.5306 -77.8027348,-7.98243 -23.5168212,3.96352 -67.4299402,20.08584 -93.3613282,34.27735 l -8.859375,4.84961 -14.140623,-8.45703 c -17.22274,-10.30207 -39.08891,-21.13153 -50.93946,-25.22657 -15.83434,-5.47168 -32.37089,-8.11291 -48.62109,-7.93359 z m 223.968751,23.67578 c 11.219793,-0.1745 21.107364,2.0066 29.439453,6.56836 10.752522,5.88692 16.2793,16.49131 15.253907,29.26563 -1.361409,16.96026 -19.927635,32.80981 -44.345703,37.85351 -15.7135904,3.24571 -36.503883,1.41718 -57.394532,-5.04687 -9.634299,-2.98107 -25,-9.34222 -25,-10.34961 0,-0.95399 12.630812,-8.09375 14.31836,-8.09375 0.773813,0 4.956863,0.86215 9.294922,1.91797 26.48015,6.44466 53.296261,4.77154 68.763671,-4.29297 4.75519,-2.78672 8.61196,-7.63237 8.619141,-10.82813 0.01587,-7.23031 -6.640738,-11.01151 -20.4472656,-11.61328 -16.3001008,-0.7104 -31.2728884,3.10678 -54.0957034,13.79102 l -10.628906,4.97656 -4.162109,-2.0918 c -6.58551,-3.30782 -15.66211,-8.93627 -15.66211,-9.71289 0,-1.14413 16.556359,-10.59461 29,-16.55273 21.403522,-10.24815 40.6487166,-15.53597 57.046875,-15.79102 z m -120.394531,26.33789 10.742188,5.50977 10.740234,5.51172 -4.601563,2.91797 c -2.531391,1.60535 -5.149961,2.89339 -5.818359,2.85937 -1.15974,-0.0577 -18.99768,-9.89026 -20.29297,-11.18555 -0.34148,-0.34151 1.59535,-1.74427 4.30469,-3.11718 z m -106.62305,0.92188 c 4.27872,0.0611 8.55708,0.51885 12.27539,1.40234 11.84926,2.81545 39.75427,17.14416 36.86524,18.92969 -0.54221,0.33509 -6.76509,2.22241 -13.82813,4.19336 -10.88216,3.0367 -14.94009,3.66719 -26.59179,4.13672 -7.56249,0.30474 -13.75,0.25245 -13.75,-0.11719 0,-1.88878 3.02951,-7.36772 5.12109,-9.26172 2.4561,-2.22406 8.62437,-4.33046 12.70898,-4.3418 2.07569,-0.005 2.25531,0.32742 1.66016,3.03711 -0.82627,3.76199 0.80776,5.95899 4.43164,5.95899 5.8345,0 7.04347,-5.83492 1.86133,-8.98633 -10.11347,-6.1504 -25.54674,-2.08762 -32.23047,8.48633 -1.56388,2.47411 -3.14725,4.5 -3.51953,4.5 -0.37227,0 -2.79773,-0.72392 -5.39063,-1.60742 -5.32224,-1.81346 -9.64257,-7.00521 -9.64257,-11.58985 0,-3.85517 4.98454,-9.11229 11.24218,-11.85547 4.52597,-1.98404 11.65592,-2.98658 18.78711,-2.88476 z m 225.6425812,0.21484 c 6.4461508,0.11789 11.3422988,1.45125 14.0781248,3.98633 3.489589,3.23353 2.868681,6.48603 -2.15625,11.30078 -5.034338,4.82374 -12.5105196,7.99297 -23.5937498,10.00391 -8.2478702,1.49661 -16.5635312,1.62014 -25.0000002,0.37304 -6.495201,-0.96019 -21.681247,-5.61838 -22.46875,-6.89258 -1.348429,-2.18184 19.757989,-11.31209 35.763672,-15.4707 8.9353797,-2.32161 16.9308022,-3.41867 23.3769532,-3.30078 z M -133.35156,352.59375 c 0.67661,0.002 6.35041,2.87342 12.60742,6.38086 l 11.375,6.37695 -6.93359,4.11914 c -3.81402,2.26587 -7.13393,4.10484 -7.37696,4.08594 -0.24301,-0.0188 -5.35265,-3.16873 -11.35547,-7 -6.00282,-3.83127 -11.29032,-6.96484 -11.75,-6.96484 -0.45968,0 -0.83593,-0.37185 -0.83593,-0.82422 0,-0.88585 12.23412,-6.17799 14.26953,-6.17383 z m 48.744138,1.29883 c 0.169755,-0.0115 0.31385,-0.005 0.427734,0.0215 3.236229,0.76059 20.560228,8.05217 20.539063,8.64453 -0.01053,0.29261 -2.904181,2.22072 -6.431641,4.28321 -3.52747,2.06249 -6.557921,3.7016 -6.732422,3.64453 -1.558121,-0.51054 -18.799706,-10.51295 -18.779296,-10.89453 0.06884,-1.28601 8.430245,-5.52712 10.976562,-5.69922 z m -78.224608,9.8789 6.85547,4.60938 c 3.77031,2.53565 9.74473,6.30484 13.27734,8.375 l 6.42383,3.76367 -6.53711,2.93359 c -9.50564,4.2649 -20.65567,7.84297 -29.91602,9.59961 -10.41097,1.97485 -28.73573,1.9083 -35.37695,-0.1289 -9.31724,-2.85808 -13.51562,-7.60658 -13.51562,-15.28321 v -4.04882 h 4.89453 c 13.77026,0 36.02369,-3.675 48.75,-8.05078 z m 56.11523,2.91016 10.214847,4.82227 c 11.621299,5.4867 11.726064,4.19169 -0.921875,11.46289 -3.466962,1.99309 -6.391982,3.61901 -6.500002,3.61523 -0.68901,-0.0303 -16.69216,-10.57833 -16.66797,-10.98633 0.0164,-0.27809 3.14568,-2.39659 6.95313,-4.70898 z m -4.18359,26.74219 13.888671,4.46679 c 7.639499,2.45704 14.790624,4.64395 15.890625,4.85938 1.431239,0.28033 0.06238,1.30087 -4.8125,3.5918 -4.246949,1.99581 -9.173231,5.4713 -13.083984,9.22656 -3.450052,3.31294 -6.493742,6.02344 -6.763672,6.02344 -0.26991,0 -1.58201,-1.16024 -2.91406,-2.57813 -3.17307,-3.37757 -11.91865,-8.54594 -19.42578,-11.47851 -6.37372,-2.48981 -8.79482,-3.94336 -6.56446,-3.94336 0.73506,0 6.38761,-2.28786 12.56055,-5.08399 z m 57.267578,8.28906 c 1.982225,-0.036 3.915014,-0.001 5.513671,0.12695 7.454389,0.59838 10.224972,1.81933 6.488282,2.85938 -5.293977,1.47349 -21.722227,0.49261 -23.625,-1.41016 -0.729173,-0.72918 5.676371,-1.46831 11.623047,-1.57617 z m -48.312498,33.39453 c 0.94643,0.20563 1.89977,2.63643 2.859372,7.29297 0.797726,3.87114 0.925653,7.7145 0.371094,11.22266 -1.077222,6.81441 -2.828236,8.81697 -5.308596,6.07617 -3.27731,-3.62136 -3.11175,-13.3672 0.38282,-22.5586 0.56254,-1.47961 1.12745,-2.15657 1.69531,-2.0332 z"
       transform="scale(0.26458333)"
       id="path4496"
       inkscape:connector-curvature="0" />
  </g>
</svg>
